<svg xmlns="http://www.w3.org/2000/svg" width="324.28" height="269.84" viewBox="0 0 324.28 269.84">
  <g id="Layer_2" data-name="Layer 2">
    <g id="Layer_1-2" data-name="Layer 1">
      <g>
        <path d="M69.08,60.81V0H91.93V43.44h24.83V60.81Z" fill="#fff"/>
        <path d="M119,60.81V19h33.47V30.26H134.77V34H150v11.7H134.77V49.5h17.74V60.81Z" fill="#fff"/>
        <path d="M163.5,60.81V30.26H152.84V19h37V30.26H179.23V60.81Z" fill="#fff"/>
        <path d="M190.86,34.74l4.42-16.44h12.94l-5.59,16.44Z" fill="#fff"/>
        <path d="M226,61.46a47.19,47.19,0,0,1-8.51-.75,24.84,24.84,0,0,1-6.89-2.18V46.77a35.17,35.17,0,0,0,6.89,2.47,28,28,0,0,0,6.82,1,7.9,7.9,0,0,0,3.06-.48,1.54,1.54,0,0,0,1.1-1.4c0-.78-.69-1.39-2.08-1.82s-3.2-1.06-5.46-1.89a28.75,28.75,0,0,1-6.37-3.25,9.68,9.68,0,0,1-3.35-4.06,15.3,15.3,0,0,1-1-6q0-13.07,18.39-13.06a42.54,42.54,0,0,1,4.65.29c1.71.2,3.38.45,5,.75a38.89,38.89,0,0,1,4.13,1V32.14a33,33,0,0,0-6.3-2,25.86,25.86,0,0,0-4.81-.52,20,20,0,0,0-3.32.29c-1.12.2-1.69.64-1.69,1.33s.5,1,1.5,1.34,2.57.79,4.74,1.39a23.33,23.33,0,0,1,7.8,3.42,9.59,9.59,0,0,1,3.48,4.68,20.17,20.17,0,0,1,.88,6.2,11.5,11.5,0,0,1-4.68,9.59Q235.26,61.47,226,61.46Z" fill="#fff"/>
        <path d="M17.48,141.38V68.18H58.63q9.43,0,15.57,3.86a23.85,23.85,0,0,1,9.15,10.35,33.52,33.52,0,0,1,3,14.32,29.81,29.81,0,0,1-3.47,14.38,26,26,0,0,1-9.78,10.17A28.7,28.7,0,0,1,58.18,125H45v16.37ZM45,103.53H51.7a6.55,6.55,0,0,0,5-1.82,7,7,0,0,0,1.7-5q0-7-6.25-7H45Z" fill="#fff"/>
        <path d="M89.77,141.38V68.18h27.51v52.29h29.9v20.91Z" fill="#fff"/>
        <path d="M148.88,141.38l28.19-73.2H205.6l28.19,73.2H205.15l-5.23-13.64H182.75l-5.22,13.64ZM185.71,109h11.14l-5.57-14Z" fill="#fff"/>
        <path d="M246.64,141.38v-26.6l-26.49-46.6H248.8l11.59,23.3L272,68.18h28.65l-26.49,46.6v26.6Z" fill="#fff"/>
        <path d="M10.66,195.81V165.26H0V154H37.05v11.31H26.39v30.55Z" fill="#fff"/>
        <path d="M59.8,196.46a31,31,0,0,1-12.09-2.11A15.5,15.5,0,0,1,40,187.49q-2.67-4.74-2.66-12.61T40,162.24a15.53,15.53,0,0,1,7.67-6.83A31,31,0,0,1,59.8,153.3a31,31,0,0,1,12.09,2.11,15.53,15.53,0,0,1,7.67,6.83q2.67,4.71,2.67,12.64t-2.67,12.61a15.5,15.5,0,0,1-7.67,6.86A31,31,0,0,1,59.8,196.46Zm0-13.33c2.3,0,3.93-.61,4.91-1.85s1.46-3.37,1.46-6.4-.49-5.17-1.46-6.4-2.61-1.86-4.91-1.86-3.93.62-4.91,1.86-1.46,3.37-1.46,6.4.49,5.17,1.46,6.4S57.5,183.13,59.8,183.13Z" fill="#fff"/>
        <path d="M108.55,196.46q-11.83,0-18.1-5.46t-6.28-16.12q0-10.66,6.57-16.12t18.91-5.46a56.35,56.35,0,0,1,7.25.42,31.21,31.21,0,0,1,6.21,1.46v13.39A26.35,26.35,0,0,0,117,167a47,47,0,0,0-6.34-.42,14.31,14.31,0,0,0-7.5,1.79c-2,1.19-3,3.37-3,6.53s.7,5.34,2.11,6.53a9.19,9.19,0,0,0,6.08,1.79,15.68,15.68,0,0,0,3.9-.46v-2.53h-7v-9.49h20v21.64a28.69,28.69,0,0,1-6.83,2.86A34.89,34.89,0,0,1,108.55,196.46Z" fill="#fff"/>
        <path d="M129.22,195.81V154h33.47v11.31H145V169h15.27v11.7H145v3.77h17.74v11.31Z" fill="#fff"/>
        <path d="M173.68,195.81V165.26H163V154h37v11.31H189.41v30.55Z" fill="#fff"/>
        <path d="M202.34,195.81V154h15.73V167.6h10.47V154h15.73v41.86H228.54V182.16H218.07v13.65Z" fill="#fff"/>
        <path d="M248.82,195.81V154h33.47v11.31H264.55V169h15.27v11.7H264.55v3.77h17.74v11.31Z" fill="#fff"/>
        <path d="M284.89,195.81V154h23.53a17.43,17.43,0,0,1,8.91,2.05,12.87,12.87,0,0,1,5.23,5.59,18.06,18.06,0,0,1,1.72,8A12.74,12.74,0,0,1,322.1,177a19.72,19.72,0,0,1-5.23,5.27,3.78,3.78,0,0,1,1.11,1,7.16,7.16,0,0,1,.65,1.13l4.94,11.38H307.19l-4.1-9.3a2.6,2.6,0,0,0-.71-1.07,1.86,1.86,0,0,0-1.11-.29h-.65v10.66Zm15.73-22.95h3.84q3.82,0,3.83-3.25a3.32,3.32,0,0,0-.88-2.6,4,4,0,0,0-2.69-.78h-4.1Z" fill="#fff"/>
        <path d="M64.27,254.81V213H80v41.86Z" fill="#fff"/>
        <path d="M84.55,254.81V213H97.74l11.7,16.38V213h15.73v41.86H111.91l-11.63-16.38v16.38Z" fill="#fff"/>
        <path d="M127.63,269.84l22.78-59.16h23.05l22.78,59.16H173.1l-4.23-11H155l-4.22,11Zm29.76-26.18h9l-4.5-11.3Z" fill="#fff"/>
        <path d="M199,269.84V210.68h33.26q7.62,0,12.58,2.89a18.22,18.22,0,0,1,7.39,7.9,25.54,25.54,0,0,1,2.44,11.35,18.11,18.11,0,0,1-3.08,10.47,28.12,28.12,0,0,1-7.39,7.44,5.56,5.56,0,0,1,1.56,1.42,9.65,9.65,0,0,1,.92,1.61l7,16.08H230.47l-5.79-13.14a3.54,3.54,0,0,0-1-1.52,2.61,2.61,0,0,0-1.56-.41h-.92v15.07Zm22.23-32.43h5.42q5.41,0,5.42-4.59a4.71,4.71,0,0,0-1.24-3.68A5.64,5.64,0,0,0,227,228h-5.79Z" fill="#fff"/>
      </g>
    </g>
  </g>
</svg>
