<?xml version="1.0" encoding="UTF-8"?>
<svg width="32px" height="32px" viewBox="0 0 32 32" version="1.1" xmlns="http://www.w3.org/2000/svg" xmlns:xlink="http://www.w3.org/1999/xlink">
    <title>ic_volume_down</title>
    <g id="04-Final" stroke="none" stroke-width="1" fill="none" fill-rule="evenodd">
        <g id="Rate_Game_2" transform="translate(-600.000000, -608.000000)">
            <g id="Video" transform="translate(378.000000, 72.000000)">
                <g id="ic_volume_down" transform="translate(222.000000, 536.000000)">
                    <polygon id="Container" points="0 0 32 0 32 32 0 32"></polygon>
                    <path d="M9.49,9.23650014 C9.18666667,9.55183367 9.18666667,10.0612186 9.49,10.3765521 L12.3366667,13.335836 L12.1111111,13.5784002 L9.77777778,13.5784002 C9.35,13.5784002 9,13.9422466 9,14.3869477 L9,17.6211377 C9,18.0658389 9.35,18.4296852 9.77777778,18.4296852 L12.1111111,18.4296852 L14.67,21.0898065 C15.16,21.5991915 16,21.2353451 16,20.5157378 L16,17.1440947 L19.2511111,20.5238233 C18.87,20.8229859 18.4577778,21.0736356 18.0066667,21.2596015 C17.7266667,21.3808836 17.5555556,21.6881317 17.5555556,22.0034652 C17.5555556,22.5856194 18.1233333,22.9575513 18.6366667,22.7392434 C19.2588889,22.4724228 19.8422222,22.1166619 20.3633333,21.6800462 L21.4055556,22.7634999 C21.7088889,23.0788334 22.1988889,23.0788334 22.5022222,22.7634999 C22.8055556,22.4481663 22.8055556,21.9387814 22.5022222,21.6234479 L10.5944444,9.23650014 C10.2911111,8.92116662 9.80111111,8.92116662 9.49,9.23650014 Z M21.4444444,16.0040427 C21.4444444,16.6670517 21.3277778,17.3058042 21.1255556,17.8960439 L22.3155556,19.1331216 C22.7511111,18.187121 23,17.1279238 23,16.0040427 C23,12.9073058 21.1333333,10.25527 18.5044444,9.21224372 C18.0455556,9.02627779 17.5555556,9.39820964 17.5555556,9.90759457 L17.5555556,10.0612186 C17.5555556,10.3684666 17.75,10.6352873 18.03,10.748484 C20.0288889,11.5893734 21.4444444,13.6269131 21.4444444,16.0040427 Z M14.67,10.9182789 L14.5377778,11.055732 L16,12.5758013 L16,11.4842622 C16,10.7646549 15.16,10.408894 14.67,10.9182789 Z M19.5,16.0040427 C19.5,14.5729137 18.7066667,13.3439215 17.5555556,12.7455963 L17.5555556,14.1928963 L19.4844444,16.1980941 C19.4922222,16.1334103 19.5,16.0687265 19.5,16.0040427 Z" id="Shape" fill="#FFFFFF" fill-rule="nonzero"></path>
                </g>
            </g>
        </g>
    </g>
</svg>