<?xml version="1.0" encoding="UTF-8"?>
<svg width="32px" height="32px" viewBox="0 0 32 32" version="1.1" xmlns="http://www.w3.org/2000/svg" xmlns:xlink="http://www.w3.org/1999/xlink">
    <title>BD256409-C131-4345-A24D-3A4DB27EB34F</title>
    <g id="04-Final" stroke="none" stroke-width="1" fill="none" fill-rule="evenodd">
        <g id="35-07" transform="translate(-1356.000000, -68.000000)">
            <g id="ic_cross" transform="translate(1356.000000, 68.000000)">
                <rect id="Container" x="0" y="0" width="32" height="32"></rect>
                <path d="M8.27261986,7.08029528 L16.2499916,15.057669 L24.2273754,7.08026451 C24.5566315,6.75102504 25.0904683,6.75101852 25.4197316,7.0802715 C25.7489878,7.40954067 25.7489826,7.94336124 25.4197197,8.27263287 L17.4423344,16.2500163 L25.4196964,24.2273841 C25.7489568,24.5566489 25.748962,25.0904573 25.4197053,25.4197058 C25.0904336,25.7489883 24.5566192,25.7489818 24.2273624,25.4197164 L16.2499904,17.4423424 L8.27265299,25.4197118 C7.9433974,25.7489507 7.40956164,25.7489573 7.080302,25.4197058 C6.75104126,25.0904343 6.75104647,24.5566158 7.08031124,24.2273444 L15.0576448,16.2500165 L7.08028559,8.27266295 C6.75102017,7.94339519 6.75101495,7.4095787 7.08027572,7.08030716 C7.40955093,6.75104225 7.9433755,6.75104225 8.27261986,7.08029528 Z" id="Path" fill="#FFFFFF" fill-rule="nonzero"></path>
            </g>
        </g>
    </g>
</svg>