<?xml version="1.0" encoding="UTF-8"?>
<svg width="32px" height="32px" viewBox="0 0 32 32" version="1.1" xmlns="http://www.w3.org/2000/svg" xmlns:xlink="http://www.w3.org/1999/xlink">
    <title>0F858BB3-201D-4A32-8A66-CB58B39CF20C</title>
    <g id="04-Final" stroke="none" stroke-width="1" fill="none" fill-rule="evenodd">
        <g id="35-01-Snow_Show" transform="translate(-1356.000000, -68.000000)">
            <g id="ic_menu" transform="translate(1356.000000, 68.000000)">
                <rect id="Container" x="0" y="0" width="32" height="32"></rect>
                <path d="M27,20 C27.5522847,20 28,20.4477153 28,21 C28,21.5522847 27.5522847,22 27,22 L5,22 C4.44771525,22 4,21.5522847 4,21 C4,20.4477153 4.44771525,20 5,20 L27,20 Z M27,15 C27.5522847,15 28,15.4477153 28,16 C28,16.5522847 27.5522847,17 27,17 L5,17 C4.44771525,17 4,16.5522847 4,16 C4,15.4477153 4.44771525,15 5,15 L27,15 Z M27,10 C27.5522847,10 28,10.4477153 28,11 C28,11.5522847 27.5522847,12 27,12 L5,12 C4.44771525,12 4,11.5522847 4,11 C4,10.4477153 4.44771525,10 5,10 L27,10 Z" fill="#FFFFFF"></path>
            </g>
        </g>
    </g>
</svg>