<?xml version="1.0" encoding="UTF-8"?>
<svg width="16px" height="16px" viewBox="0 0 16 16" version="1.1" xmlns="http://www.w3.org/2000/svg" xmlns:xlink="http://www.w3.org/1999/xlink">
    <title>EE77A51F-EC83-4537-8CF7-311F6C081179</title>
    <g id="04-Final" stroke="none" stroke-width="1" fill="none" fill-rule="evenodd">
        <g id="35-01-Snow_Show" transform="translate(-965.000000, -553.000000)">
            <g id="CTA" transform="translate(792.000000, 536.000000)">
                <g id="ic_arrow" transform="translate(173.000000, 17.000000)">
                    <rect id="Base" x="0" y="0" width="16.109589" height="16"></rect>
                    <path d="M13.8288104,6.88192771 L10.1024081,3.25094664 C9.75901947,2.91635112 9.18670512,2.91635112 8.84331651,3.25094664 C8.4999279,3.58554217 8.4999279,4.14320138 8.84331651,4.4777969 L11.0435472,6.63407917 L2.90396539,6.63407917 C2.40795963,6.63407917 2.01369863,7.01824441 2.01369863,7.50154905 C2.01369863,7.9848537 2.40795963,8.36901893 2.90396539,8.36901893 L11.0435472,8.36901893 L8.84331651,10.5129088 C8.4999279,10.8475043 8.4999279,11.4051635 8.84331651,11.739759 C9.02136986,11.913253 9.2502956,12 9.47922134,12 C9.70814708,12 9.93707282,11.913253 10.1151262,11.739759 L13.8288104,8.1211704 C13.9941456,7.96006885 14.0958904,7.73700516 14.0958904,7.50154905 C14.0958904,7.26609294 14.0068637,7.04302926 13.8288104,6.88192771 Z" id="Path" fill="#FFFFFF" fill-rule="nonzero"></path>
                </g>
            </g>
        </g>
    </g>
</svg>