<?xml version="1.0" encoding="UTF-8"?>
<svg width="240px" height="136px" viewBox="0 0 240 136" version="1.1" xmlns="http://www.w3.org/2000/svg" xmlns:xlink="http://www.w3.org/1999/xlink">
    <title>1031645F-E68A-4923-AE86-5542353F5384</title>
    <g id="04-Final" stroke="none" stroke-width="1" fill="none" fill-rule="evenodd" opacity="0.30334182">
        <g id="35-06" transform="translate(-980.000000, -354.000000)" fill="#FFFFFF">
            <g id="Base" transform="translate(980.000000, 354.000000)">
                <path d="M232.554694,0 C236.666623,0 240,3.48868156 240,7.79218835 L240,128.207812 C240,132.511318 236.666623,136 232.554694,136 L17.3075658,136 C13.1956369,136 9.86225986,132.511318 9.86225986,128.207812 L9.86223899,78.8808838 C9.86223862,77.99291 9.46885918,77.1505589 8.78798182,76.5805558 L1.39726718,70.3933477 L1.39726718,70.3933477 C-0.208171349,69.049158 -0.468464364,66.5973756 0.815886458,64.9171385 C0.987618999,64.6924714 1.1826015,64.4884045 1.39726718,64.3086708 L8.78813745,58.120482 C9.46892181,57.5504784 9.86223862,56.7081871 9.86223901,55.8202843 L9.86225986,7.79218835 L9.86225986,7.79218835 C9.86225986,3.48868156 13.1956369,0 17.3075658,0 L232.554694,0 Z"></path>
            </g>
        </g>
    </g>
</svg>